<?xml version="1.0" encoding="utf-8"?>
<!-- Generator: Adobe Illustrator 24.1.0, SVG Export Plug-In . SVG Version: 6.00 Build 0)  -->
<svg version="1.1" id="Layer_1" xmlns="http://www.w3.org/2000/svg" xmlns:xlink="http://www.w3.org/1999/xlink" x="0px" y="0px"
	 viewBox="0 0 119.42 77.33" style="enable-background:new 0 0 119.42 77.33;" xml:space="preserve">
<style type="text/css">
	.st0{fill:none;stroke:#5DB133;stroke-width:2;stroke-linecap:round;stroke-linejoin:round;stroke-miterlimit:10;}
</style>
<g>
	<path class="st0" d="M22.15,21.18v0.19C22.15,10.17,31.7,1,43.37,1h33.33c11.67,0,21.22,9.17,21.22,20.37v-0.19"/>
	<g>
		<g>
			<line class="st0" x1="44.33" y1="15.27" x2="50.21" y2="21.15"/>
			<line class="st0" x1="50.21" y1="15.27" x2="44.33" y2="21.15"/>
		</g>
		<g>
			<line class="st0" x1="44.33" y1="33.61" x2="50.21" y2="39.5"/>
			<line class="st0" x1="50.21" y1="33.61" x2="44.33" y2="39.5"/>
		</g>
		<g>
			<line class="st0" x1="56.14" y1="15.27" x2="62.03" y2="21.15"/>
			<line class="st0" x1="62.03" y1="15.27" x2="56.14" y2="21.15"/>
		</g>
		<g>
			<line class="st0" x1="56.14" y1="33.61" x2="62.03" y2="39.5"/>
			<line class="st0" x1="62.03" y1="33.61" x2="56.14" y2="39.5"/>
		</g>
		<g>
			<line class="st0" x1="67.96" y1="15.27" x2="73.84" y2="21.15"/>
			<line class="st0" x1="73.84" y1="15.27" x2="67.96" y2="21.15"/>
		</g>
		<g>
			<line class="st0" x1="67.96" y1="33.61" x2="73.84" y2="39.5"/>
			<line class="st0" x1="73.84" y1="33.61" x2="67.96" y2="39.5"/>
		</g>
	</g>
	<g>
		<path class="st0" d="M29.05,73.08v1.46c0,0.98-0.87,1.79-1.93,1.79H24.1c-1.06,0-1.93-0.81-1.93-1.79v-1.46"/>
		<path class="st0" d="M17.93,51.66v16.23l0.04,0.01c4.96,1.72,10.35,1.71,15.31-0.01l0,0v-27.1c0-0.63-0.06-1.26-0.09-1.9
			C32.4,22.99,11.29,26,11.29,26c-5.08,0.71-8.87,3.93-9.97,8.42c-1.66,6.72,3.39,12.74,9.84,12.74c2.61,0,4.97-0.99,6.77-2.6"/>
		<path class="st0" d="M11.46,42.05C8.44,42.05,6,39.59,6,36.55s2.45-5.49,5.46-5.49c0.92,0,1.79,0.23,2.55,0.64"/>
		<path class="st0" d="M20.86,37.88c0,0,0.04,6.63-6.63,8.8"/>
	</g>
	<g>
		<path class="st0" d="M90.37,73.08v1.46c0,0.98,0.87,1.79,1.93,1.79h3.02c1.06,0,1.93-0.81,1.93-1.79v-1.46"/>
		<path class="st0" d="M101.49,51.66v16.23l-0.04,0.01c-4.96,1.72-10.35,1.71-15.31-0.01v0v-27.1c0-0.63,0.06-1.26,0.09-1.9
			C87.02,22.99,108.13,26,108.13,26c5.08,0.71,8.87,3.93,9.97,8.42c1.66,6.72-3.39,12.74-9.84,12.74c-2.61,0-4.97-0.99-6.77-2.6"/>
		<path class="st0" d="M107.96,42.05c3.02,0,5.46-2.46,5.46-5.49s-2.45-5.49-5.46-5.49c-0.92,0-1.79,0.23-2.55,0.64"/>
		<path class="st0" d="M98.56,37.88c0,0-0.04,6.63,6.63,8.8"/>
	</g>
	<rect x="33.27" y="48.44" class="st0" width="52.87" height="17.11"/>
	<line class="st0" x1="59.71" y1="52.13" x2="59.71" y2="61.85"/>
</g>
</svg>
