<?xml version="1.0" encoding="utf-8"?>
<!-- Generator: Adobe Illustrator 24.1.0, SVG Export Plug-In . SVG Version: 6.00 Build 0)  -->
<svg version="1.1" id="Layer_1" xmlns="http://www.w3.org/2000/svg" xmlns:xlink="http://www.w3.org/1999/xlink" x="0px" y="0px"
	 viewBox="0 0 446.86 198.35" style="enable-background:new 0 0 446.86 198.35;" xml:space="preserve">
<style type="text/css">
	.st0{fill:#878787;}
	.st1{fill:#DF6182;}
	.st2{fill:none;stroke:#DF6182;stroke-width:2.808;stroke-miterlimit:10;}
	.st3{fill:#FFFFFF;}
</style>
<g>
	<g>
		<path class="st0" d="M0,187.2h1.63l1.65,6.54l0.41,2.19c0.09-0.41,0.16-0.74,0.2-0.97c0.05-0.23,0.09-0.42,0.12-0.55
			c0.03-0.14,0.06-0.25,0.08-0.34c0.03-0.09,0.06-0.2,0.11-0.33l1.95-6.54h1.56l1.94,6.54c0.05,0.13,0.1,0.29,0.14,0.47
			c0.04,0.18,0.09,0.39,0.15,0.63l0.25,1.1c0.06-0.38,0.12-0.75,0.19-1.12c0.07-0.37,0.14-0.73,0.23-1.07l1.72-6.54h1.64
			l-2.99,10.94H9.45l-2.54-8.88l-2.49,8.88h-1.6L0,187.2z"/>
		<path class="st0" d="M29.22,187.2h7.89v1.37h-6.37v3.22h5.89v1.37h-5.89v3.61h6.45v1.37h-7.97V187.2z"/>
		<path class="st0" d="M70.84,198.14v-10.94h1.85l3.43,9.09l3.32-9.09h1.85v10.94h-1.34v-8.77l-3.2,8.77h-1.23l-3.34-8.77v8.77
			H70.84z"/>
		<path class="st0" d="M100.42,187.2h1.61l3.94,10.94h-1.65l-1.1-3.26H99l-1.18,3.26H96.2L100.42,187.2z M101.16,188.84l-1.69,4.8
			h3.27L101.16,188.84z"/>
		<path class="st0" d="M121.23,187.18h1.52v5.32l5.17-5.32h2.03l-4.42,4.46l4.41,6.5h-1.82l-3.62-5.48l-1.74,1.67v3.81h-1.52V187.18
			z"/>
		<path class="st0" d="M145.07,187.2h7.89v1.37h-6.37v3.22h5.89v1.37h-5.89v3.61h6.44v1.37h-7.96V187.2z"/>
		<path class="st0" d="M185.83,187.2h1.63l1.65,6.54l0.4,2.19c0.09-0.41,0.16-0.74,0.2-0.97c0.05-0.23,0.09-0.42,0.12-0.55
			c0.03-0.14,0.06-0.25,0.08-0.34c0.03-0.09,0.06-0.2,0.11-0.33l1.95-6.54h1.56l1.94,6.54c0.05,0.13,0.1,0.29,0.14,0.47
			c0.04,0.18,0.09,0.39,0.15,0.63l0.26,1.1c0.06-0.38,0.12-0.75,0.19-1.12c0.07-0.37,0.14-0.73,0.23-1.07l1.73-6.54h1.64l-3,10.94
			h-1.53l-2.54-8.88l-2.49,8.88h-1.6L185.83,187.2z"/>
		<path class="st0" d="M214.28,192.77c0-0.89,0.12-1.69,0.37-2.4c0.25-0.72,0.6-1.32,1.07-1.83c0.46-0.5,1.02-0.89,1.67-1.17
			c0.66-0.27,1.4-0.41,2.23-0.41c0.8,0,1.52,0.13,2.17,0.39c0.65,0.26,1.21,0.63,1.67,1.12c0.46,0.48,0.81,1.07,1.06,1.76
			c0.25,0.69,0.37,1.46,0.37,2.31c0,0.82-0.12,1.58-0.35,2.28c-0.24,0.71-0.59,1.32-1.04,1.84c-0.46,0.53-1.02,0.94-1.68,1.23
			c-0.67,0.3-1.43,0.45-2.28,0.45c-0.8,0-1.53-0.13-2.17-0.39c-0.65-0.26-1.2-0.63-1.66-1.12c-0.46-0.49-0.81-1.07-1.06-1.76
			C214.4,194.39,214.28,193.63,214.28,192.77z M215.87,192.73c0,0.65,0.09,1.24,0.26,1.76c0.17,0.52,0.42,0.97,0.74,1.33
			c0.31,0.37,0.71,0.65,1.18,0.84c0.46,0.2,0.99,0.3,1.57,0.3c0.58,0,1.1-0.1,1.55-0.3c0.45-0.19,0.84-0.48,1.16-0.86
			c0.31-0.38,0.56-0.84,0.73-1.38c0.17-0.55,0.25-1.17,0.25-1.86c0-0.67-0.08-1.26-0.25-1.78c-0.17-0.52-0.42-0.96-0.73-1.32
			c-0.32-0.36-0.71-0.64-1.16-0.82c-0.46-0.19-0.98-0.29-1.55-0.29c-0.61,0-1.13,0.1-1.6,0.29c-0.46,0.19-0.86,0.48-1.17,0.85
			c-0.32,0.37-0.56,0.83-0.72,1.37C215.96,191.43,215.87,192.04,215.87,192.73z"/>
		<path class="st0" d="M239.8,192.77c0-0.89,0.12-1.69,0.37-2.4c0.25-0.72,0.6-1.32,1.07-1.83c0.46-0.5,1.02-0.89,1.67-1.17
			c0.66-0.27,1.4-0.41,2.23-0.41c0.8,0,1.52,0.13,2.17,0.39c0.65,0.26,1.21,0.63,1.67,1.12c0.46,0.48,0.81,1.07,1.06,1.76
			c0.25,0.69,0.37,1.46,0.37,2.31c0,0.82-0.12,1.58-0.35,2.28c-0.24,0.71-0.59,1.32-1.04,1.84c-0.46,0.53-1.02,0.94-1.68,1.23
			c-0.67,0.3-1.43,0.45-2.28,0.45c-0.8,0-1.53-0.13-2.17-0.39c-0.65-0.26-1.2-0.63-1.66-1.12c-0.46-0.49-0.81-1.07-1.06-1.76
			C239.92,194.39,239.8,193.63,239.8,192.77z M241.39,192.73c0,0.65,0.09,1.24,0.26,1.76c0.17,0.52,0.42,0.97,0.74,1.33
			c0.31,0.37,0.71,0.65,1.18,0.84c0.46,0.2,0.99,0.3,1.57,0.3c0.58,0,1.1-0.1,1.55-0.3c0.45-0.19,0.84-0.48,1.16-0.86
			c0.31-0.38,0.56-0.84,0.73-1.38c0.17-0.55,0.25-1.17,0.25-1.86c0-0.67-0.08-1.26-0.25-1.78c-0.17-0.52-0.42-0.96-0.73-1.32
			c-0.32-0.36-0.71-0.64-1.16-0.82c-0.46-0.19-0.98-0.29-1.55-0.29c-0.61,0-1.13,0.1-1.6,0.29c-0.46,0.19-0.86,0.48-1.17,0.85
			c-0.32,0.37-0.56,0.83-0.72,1.37C241.48,191.43,241.39,192.04,241.39,192.73z"/>
		<path class="st0" d="M266.09,187.2h3.69c0.92,0,1.62,0.05,2.08,0.15c0.47,0.1,0.91,0.31,1.32,0.62c1.27,0.96,1.91,2.49,1.91,4.58
			c0,1.24-0.23,2.33-0.71,3.27c-0.47,0.93-1.12,1.59-1.93,1.96c-0.15,0.07-0.31,0.12-0.48,0.17c-0.17,0.04-0.35,0.08-0.56,0.11
			c-0.2,0.03-0.42,0.05-0.67,0.07c-0.24,0.01-0.52,0.02-0.82,0.02h-3.83V187.2z M267.61,188.57v8.2h2.21c1.02,0,1.77-0.16,2.24-0.49
			c0.97-0.67,1.46-1.92,1.46-3.75c0-0.92-0.15-1.69-0.46-2.32c-0.31-0.63-0.75-1.08-1.32-1.35c-0.39-0.19-1.05-0.29-1.96-0.29
			H267.61z"/>
		<path class="st0" d="M290.76,187.2h7.89v1.37h-6.37v3.22h5.89v1.37h-5.89v3.61h6.45v1.37h-7.97V187.2z"/>
		<path class="st0" d="M314.61,187.2h1.7l5.01,8.6v-8.6h1.54v10.94h-1.72l-5-8.67v8.67h-1.52V187.2z"/>
		<path class="st0" d="M356.32,187.2h8.76v1.37h-3.63v9.58h-1.52v-9.58h-3.61V187.2z"/>
		<path class="st0" d="M383.44,187.2h1.61l3.93,10.94h-1.65l-1.1-3.26h-4.21l-1.18,3.26h-1.62L383.44,187.2z M384.19,188.84
			l-1.69,4.8h3.28L384.19,188.84z"/>
		<path class="st0" d="M404.25,187.2h1.52v9.57h5.54v1.37h-7.06V187.2z"/>
		<path class="st0" d="M426.43,187.18h1.52v5.32l5.17-5.32h2.03l-4.42,4.46l4.41,6.5h-1.82l-3.62-5.48l-1.74,1.67v3.81h-1.52V187.18
			z"/>
	</g>
	<g>
		<path class="st1" d="M441.11,96.64c0.52,0,1.03,0.07,1.52,0.21c0.49,0.14,0.95,0.33,1.38,0.58c0.43,0.25,0.81,0.55,1.16,0.9
			s0.65,0.74,0.9,1.16c0.25,0.43,0.45,0.88,0.59,1.37c0.14,0.49,0.21,1,0.21,1.52c0,0.54-0.07,1.06-0.22,1.56
			c-0.14,0.49-0.35,0.96-0.61,1.38c-0.26,0.43-0.57,0.81-0.93,1.15s-0.76,0.64-1.18,0.88c-0.43,0.24-0.88,0.43-1.35,0.56
			c-0.47,0.13-0.96,0.2-1.45,0.2c-0.51,0-1.01-0.07-1.49-0.21c-0.48-0.14-0.94-0.34-1.36-0.6c-0.42-0.26-0.81-0.56-1.16-0.91
			c-0.35-0.35-0.65-0.74-0.9-1.17c-0.25-0.43-0.45-0.88-0.59-1.36c-0.14-0.48-0.21-0.98-0.21-1.49c0-0.5,0.07-0.98,0.2-1.45
			c0.13-0.48,0.32-0.93,0.56-1.35c0.24-0.43,0.54-0.82,0.87-1.18c0.34-0.36,0.73-0.67,1.15-0.93c0.42-0.26,0.88-0.47,1.38-0.61
			C440.04,96.71,440.56,96.64,441.11,96.64z M446.1,102.43c0-0.72-0.13-1.39-0.4-2.01c-0.26-0.61-0.62-1.15-1.08-1.6
			c-0.45-0.45-0.98-0.8-1.58-1.06c-0.61-0.25-1.25-0.38-1.92-0.38c-0.49,0-0.95,0.07-1.39,0.2c-0.43,0.13-0.84,0.31-1.21,0.54
			c-0.37,0.23-0.7,0.5-1,0.81c-0.29,0.31-0.55,0.66-0.76,1.02c-0.21,0.37-0.37,0.76-0.48,1.17c-0.11,0.41-0.17,0.83-0.17,1.25
			c0,0.44,0.06,0.87,0.18,1.28c0.12,0.42,0.29,0.8,0.51,1.17c0.22,0.37,0.48,0.7,0.78,1.01c0.3,0.31,0.64,0.57,1,0.8
			c0.37,0.22,0.76,0.4,1.18,0.52c0.42,0.12,0.85,0.18,1.29,0.18c0.66,0,1.3-0.12,1.9-0.38c0.61-0.25,1.14-0.6,1.6-1.04
			c0.46-0.44,0.83-0.96,1.11-1.56C445.97,103.78,446.1,103.13,446.1,102.43z M441.27,99.02c1.81,0,2.71,0.59,2.71,1.78
			c0,0.47-0.13,0.85-0.39,1.15c-0.26,0.3-0.62,0.5-1.09,0.6l1.46,2.96h-1.38l-1.33-2.78h-1.21v2.78h-1.23v-6.5H441.27z
			 M441.05,99.81h-1v2.16h1.04c0.59,0,1-0.08,1.26-0.24c0.26-0.16,0.38-0.42,0.38-0.79c0-0.39-0.13-0.68-0.39-0.86
			C442.06,99.9,441.64,99.81,441.05,99.81z"/>
	</g>
	<path class="st1" d="M387.86,131.02c0.31-1.68,0.73-3.31,1.26-4.9c-1.14,0.61-2.26,1.26-3.41,1.84c-2.31,1.18-4.64,2.33-6.98,3.46
		c-3.16,1.46-6.36,2.75-9.6,3.89c-3.24,1.14-6.52,2.23-9.84,3.28l5.47-12.75l1.09-2.92c0.89-0.73,1.74-1.46,2.55-2.19
		c0.81-0.73,1.66-1.5,2.55-2.31c1.86-1.7,3.66-3.48,5.4-5.35c1.74-1.86,3.3-3.89,4.68-6.07c1.13-1.94,1.96-3.97,2.49-6.07
		c0.53-2.11,0.59-4.29,0.18-6.56c-0.08-0.49-0.37-0.85-0.85-1.09c-0.48-0.24-0.93-0.28-1.33-0.12c-2.27,0.57-4.19,1.56-5.77,2.98
		c-1.58,1.42-2.98,3.08-4.19,4.98c-1.21,1.9-2.25,3.89-3.1,5.95c-0.85,2.07-1.68,4.07-2.49,6.01l-3.28,7.65
		c-3.56,2.84-7.27,5.51-11.11,8.02c-3.85,2.51-7.84,4.74-11.97,6.68c-2.02,0.97-4.17,1.78-6.43,2.43c-2.27,0.65-4.56,1.03-6.86,1.15
		c-2.31,0.12-4.58-0.12-6.8-0.73s-4.27-1.72-6.14-3.34c-1.7-1.46-3.02-3.12-3.95-4.98c-0.93-1.86-1.6-3.85-2-5.95
		c-0.41-2.1-0.61-4.25-0.61-6.44c0-2.19,0.12-4.29,0.37-6.32c0.57-5.34,1.72-10.49,3.46-15.43c1.74-4.94,3.9-9.76,6.5-14.45
		c6.56-2.43,13.12-4.84,19.68-7.23c6.56-2.39,13.12-4.88,19.68-7.47c9.55-3.72,19.03-7.73,28.42-12.03c4.05-1.86,8-3.82,11.84-5.89
		c3.85-2.07,7.51-4.47,10.99-7.23c3.4-2.59,6.54-5.57,9.41-8.93c2.87-3.36,5.12-7.02,6.74-10.99c0.73-1.86,1.23-3.81,1.52-5.83
		c0.28-2.02,0.24-3.99-0.12-5.89c-0.37-1.9-1.12-3.6-2.25-5.1c-1.13-1.5-2.75-2.69-4.86-3.58C416.26,0.41,414.24,0,412.13,0
		c-2.11,0-4.21,0.24-6.32,0.73c-2.11,0.49-4.17,1.14-6.19,1.94c-2.03,0.81-3.93,1.58-5.71,2.31c-8.34,3.48-16.32,7.82-23.93,13
		c-7.86,5.26-15.08,11.16-21.68,17.67c-6.6,6.52-12.82,13.46-18.65,20.83c-2.75,3.48-5.4,7.05-7.96,10.69
		c-2.53,3.61-4.87,7.35-7.05,11.2c-3.95,1.45-7.87,2.94-11.78,4.47c-3.93,1.54-7.84,3.12-11.72,4.74
		c-8.83,3.64-17.45,7.61-25.87,11.9c-8.42,4.29-16.56,9.15-24.42,14.58c-3.89,2.67-7.61,5.47-11.17,8.38
		c-3.56,2.92-7.05,5.99-10.45,9.23c-3.08,3.08-6,6.34-8.75,9.78c-2.76,3.44-4.98,7.23-6.68,11.36c-1.62,3.89-2.47,7.9-2.55,12.03
		c0,0.73,0.34,1.07,1.03,1.03c0.69-0.04,1.07-0.39,1.16-1.03c0.65-4.94,2.23-9.56,4.73-13.85c2.51-4.29,5.43-8.26,8.75-11.9
		c3.48-3.8,7.17-7.37,11.06-10.69c3.89-3.32,7.89-6.48,12.03-9.48c8.34-5.99,17.04-11.31,26.11-15.97
		c9.07-4.66,18.34-8.93,27.82-12.82c3.07-1.29,6.18-2.55,9.29-3.77c3.12-1.21,6.26-2.39,9.41-3.52c-2.03,4.13-3.75,8.32-5.16,12.57
		c-1.42,4.25-2.45,8.69-3.1,13.3c-0.57,4.29-0.65,8.71-0.24,13.24c0.4,4.54,1.94,8.62,4.61,12.27c1.37,1.86,2.98,3.38,4.8,4.56
		c1.82,1.18,3.77,2.07,5.83,2.67c2.07,0.61,4.21,0.93,6.44,0.97c2.23,0.04,4.43-0.14,6.62-0.55c5.02-0.97,9.82-2.79,14.39-5.47
		c4.57-2.67,8.93-5.47,13.06-8.38l0.73-0.73c-0.89,2.11-1.8,4.21-2.73,6.32c-0.93,2.11-1.88,4.21-2.85,6.32l-3.65,1.09
		c-4.37,1.29-8.83,2.69-13.36,4.19c-4.54,1.5-8.93,3.24-13.18,5.22c-4.25,1.98-8.3,4.29-12.15,6.92c-3.85,2.63-7.31,5.77-10.39,9.41
		c-0.89,1.05-1.72,2.27-2.49,3.65c-0.77,1.37-1.28,2.79-1.52,4.25c-0.24,1.46-0.12,2.83,0.37,4.13c0.49,1.29,1.5,2.35,3.03,3.16
		c1.78,0.97,3.73,1.56,5.83,1.76c2.1,0.2,4.13,0.22,6.07,0.06c3.65-0.33,7.1-1.18,10.38-2.55c3.28-1.38,6.38-3.1,9.29-5.16
		c2.91-2.06,5.61-4.43,8.08-7.11c2.47-2.67,4.68-5.47,6.62-8.38c1.86-2.75,3.56-5.59,5.1-8.5c1.54-2.92,2.99-5.91,4.37-8.99
		c3.89-1.14,7.71-2.37,11.48-3.71c3.76-1.34,7.47-2.81,11.11-4.43c2.51-1.13,4.94-2.35,7.29-3.64
		C387.52,131.21,387.69,131.11,387.86,131.02z M370.41,111.63c0.53-1.22,1.07-2.43,1.64-3.65c0.89-2.02,1.96-4.01,3.22-5.95
		c1.25-1.94,2.9-3.44,4.92-4.5l0.12,0.12c-0.08,2.11-0.63,4.09-1.64,5.95c-1.01,1.86-2.2,3.61-3.58,5.22
		c-0.97,1.13-1.96,2.23-2.98,3.28c-1.01,1.05-2.08,2.11-3.22,3.16C369.38,114.06,369.88,112.84,370.41,111.63z M325.1,68.51
		c1.9-2.75,3.87-5.42,5.89-8.02c5.34-7.05,11.09-13.71,17.25-19.98c6.15-6.27,12.83-11.97,20.04-17.07l0.24-0.36
		c6.97-5.02,14.46-9.39,22.47-13.12c1.7-0.81,3.54-1.66,5.53-2.55c1.98-0.89,4.01-1.66,6.07-2.31c2.07-0.65,4.15-1.09,6.26-1.34
		c2.11-0.24,4.13-0.12,6.07,0.37c2.51,0.65,4.27,1.76,5.28,3.34s1.52,3.38,1.52,5.41s-0.37,4.09-1.09,6.19
		c-0.73,2.11-1.58,3.97-2.55,5.59c-2.19,3.64-4.78,6.95-7.77,9.9c-3,2.96-6.28,5.61-9.84,7.96c-3.56,2.35-7.21,4.43-10.93,6.26
		c-3.73,1.82-7.53,3.58-11.42,5.28c-4.62,2.03-9.25,3.99-13.91,5.89c-4.66,1.9-9.37,3.79-14.15,5.65
		c-5.1,1.95-10.19,3.85-15.25,5.71c-5.06,1.86-10.14,3.73-15.24,5.59C321.35,74.06,323.2,71.26,325.1,68.51z M346.3,155.54
		c-2.11,3.52-4.5,6.8-7.17,9.84c-2.67,3.04-5.65,5.75-8.93,8.14c-3.28,2.39-6.95,4.19-10.99,5.41l0.12-0.24
		c-2.11,0.65-4.31,1.11-6.62,1.4c-2.31,0.28-4.56,0.18-6.74-0.3c-0.73-0.16-1.4-0.35-2-0.55c-0.61-0.2-1.2-0.51-1.76-0.91
		l-0.24-0.24c-0.16-0.16-0.24-0.29-0.24-0.37c0.08,0.16,0.12,0.26,0.12,0.3c0,0.04-0.02,0.02-0.06-0.06
		c-0.04-0.08-0.1-0.36-0.18-0.85c-0.08-0.32-0.12-0.81-0.12-1.46c0.08-0.81,0.3-1.6,0.67-2.37c0.37-0.77,0.75-1.48,1.16-2.13
		c2.59-3.81,5.89-7.09,9.9-9.84c4.01-2.75,8.03-5.1,12.08-7.04c4.13-1.94,8.3-3.63,12.51-5.04c4.21-1.42,8.5-2.78,12.88-4.07
		l1.46-0.36C350.35,148.43,348.4,152.02,346.3,155.54z"/>
	<circle class="st2" cx="409.14" cy="137.59" r="36.11"/>
	<g>
		<g>
			<path class="st3" d="M439.75,135.44c-0.38,0-0.7-0.29-0.73-0.67c-0.71-7.52-4.18-14.47-9.77-19.59
				c-5.63-5.15-12.93-7.99-20.57-7.99c-4.46,0-8.76,0.94-12.77,2.8c-0.37,0.17-0.81,0.01-0.98-0.36c-0.17-0.37-0.01-0.81,0.36-0.98
				c4.21-1.95,8.72-2.93,13.39-2.93c8.01,0,15.66,2.97,21.57,8.37c5.86,5.37,9.5,12.66,10.25,20.54c0.04,0.41-0.26,0.76-0.66,0.8
				C439.8,135.44,439.77,135.44,439.75,135.44z"/>
		</g>
		<g>
			<path class="st3" d="M408.67,169.63c-9.19,0-17.94-3.96-24.01-10.86c-0.27-0.31-0.24-0.77,0.07-1.04
				c0.31-0.27,0.77-0.24,1.04,0.07c5.79,6.59,14.14,10.36,22.9,10.36c0.45,0,0.91-0.01,1.36-0.03c0.4-0.01,0.75,0.3,0.77,0.7
				c0.02,0.41-0.3,0.75-0.7,0.77C409.63,169.62,409.15,169.63,408.67,169.63z"/>
		</g>
		<g>
			<path class="st3" d="M405.92,165.69c-0.02,0-0.05,0-0.07,0c-7.38-0.74-14.07-4.3-18.84-10.03c-0.26-0.31-0.22-0.78,0.1-1.04
				c0.31-0.26,0.78-0.22,1.04,0.1c4.51,5.43,10.85,8.81,17.85,9.51c0.41,0.04,0.7,0.4,0.66,0.81
				C406.62,165.41,406.3,165.69,405.92,165.69z"/>
		</g>
		<g>
			<path class="st3" d="M435.36,132.1c-0.33,0-0.64-0.23-0.72-0.57c-1.35-5.75-4.65-10.97-9.29-14.69
				c-4.78-3.83-10.54-5.86-16.68-5.86c-3.62,0-7.13,0.71-10.43,2.11c-0.37,0.16-0.81-0.02-0.97-0.39c-0.16-0.37,0.02-0.81,0.39-0.97
				c3.48-1.48,7.19-2.23,11-2.23c6.38,0,12.63,2.19,17.6,6.18c4.89,3.92,8.38,9.43,9.8,15.5c0.09,0.4-0.15,0.79-0.55,0.89
				C435.48,132.1,435.42,132.1,435.36,132.1z"/>
		</g>
		<g>
			<path class="st3" d="M430.03,129.72c-0.29,0-0.57-0.17-0.68-0.46c-3.44-8.44-11.55-13.9-20.67-13.9c-3.01,0-5.93,0.59-8.68,1.75
				c-0.37,0.16-0.81-0.02-0.97-0.39c-0.16-0.37,0.02-0.81,0.39-0.97c2.93-1.24,6.05-1.87,9.26-1.87c9.72,0,18.37,5.82,22.03,14.81
				c0.15,0.38-0.03,0.81-0.4,0.96C430.21,129.7,430.12,129.72,430.03,129.72z"/>
		</g>
		<g>
			<path class="st3" d="M403.23,160.81c-0.06,0-0.12-0.01-0.17-0.02c-4.75-1.15-8.97-3.71-12.22-7.39
				c-0.27-0.31-0.24-0.77,0.07-1.04c0.3-0.27,0.77-0.24,1.04,0.07c3.05,3.46,7.01,5.85,11.47,6.93c0.4,0.1,0.64,0.49,0.54,0.89
				C403.86,160.58,403.56,160.81,403.23,160.81z"/>
		</g>
		<g>
			<path class="st3" d="M425.16,128.79c-0.25,0-0.5-0.13-0.64-0.37c-3.28-5.61-9.36-9.1-15.85-9.1c-2.59,0-5.1,0.53-7.44,1.57
				c-0.37,0.17-0.81,0-0.97-0.37c-0.17-0.37,0-0.81,0.37-0.97c2.54-1.13,5.24-1.7,8.04-1.7c7.02,0,13.58,3.77,17.12,9.83
				c0.21,0.35,0.09,0.8-0.26,1.01C425.41,128.76,425.29,128.79,425.16,128.79z"/>
		</g>
		<g>
			<path class="st3" d="M401.53,156.11c-0.09,0-0.19-0.02-0.28-0.05c-3.09-1.25-5.84-3.28-7.95-5.87c-0.26-0.32-0.21-0.78,0.11-1.04
				c0.32-0.26,0.78-0.21,1.04,0.11c1.96,2.4,4.5,4.28,7.36,5.44c0.38,0.15,0.56,0.58,0.41,0.96
				C402.1,155.94,401.82,156.11,401.53,156.11z"/>
		</g>
		<g>
			<path class="st3" d="M420.1,129c-0.21,0-0.42-0.09-0.57-0.27c-2.68-3.25-6.64-5.12-10.85-5.12c-2.38,0-4.72,0.6-6.79,1.74
				c-0.36,0.2-0.8,0.07-1-0.29c-0.2-0.36-0.07-0.8,0.29-1c2.28-1.26,4.88-1.93,7.5-1.93c4.65,0,9.02,2.06,11.99,5.65
				c0.26,0.31,0.21,0.78-0.1,1.04C420.43,128.94,420.26,129,420.1,129z"/>
		</g>
		<g>
			<path class="st3" d="M400.93,151.03c-0.13,0-0.27-0.04-0.39-0.11c-1.85-1.14-3.42-2.62-4.66-4.41c-0.23-0.33-0.15-0.79,0.19-1.03
				c0.33-0.23,0.79-0.15,1.03,0.19c1.12,1.62,2.54,2.96,4.22,4c0.35,0.21,0.45,0.67,0.24,1.01
				C401.42,150.9,401.18,151.03,400.93,151.03z"/>
		</g>
		<g>
			<path class="st3" d="M401.53,146.4c-0.18,0-0.35-0.06-0.49-0.19c-1.32-1.18-2.36-2.67-3.01-4.31c-0.15-0.38,0.03-0.81,0.41-0.96
				c0.38-0.15,0.81,0.03,0.96,0.41c0.57,1.43,1.47,2.72,2.62,3.75c0.3,0.27,0.33,0.74,0.06,1.04
				C401.93,146.31,401.73,146.4,401.53,146.4z"/>
		</g>
		<g>
			<path class="st3" d="M401.53,130.42c-0.2,0-0.4-0.08-0.55-0.25c-0.27-0.3-0.25-0.77,0.06-1.04c2.1-1.88,4.81-2.92,7.64-2.92
				c2.82,0,5.54,1.04,7.64,2.92c0.3,0.27,0.33,0.74,0.06,1.04c-0.27,0.3-0.74,0.33-1.04,0.06c-1.83-1.64-4.19-2.54-6.65-2.54
				c-2.46,0-4.82,0.9-6.65,2.54C401.88,130.36,401.7,130.42,401.53,130.42z"/>
		</g>
		<g>
			<path class="st3" d="M402.95,141.9c-0.25,0-0.49-0.13-0.63-0.35c-0.71-1.16-1.09-2.51-1.09-3.88c0-4.1,3.34-7.44,7.44-7.44
				c1,0,1.97,0.19,2.88,0.58c0.38,0.16,0.55,0.59,0.39,0.96c-0.16,0.38-0.59,0.55-0.96,0.39c-0.73-0.31-1.51-0.46-2.31-0.46
				c-3.29,0-5.97,2.68-5.97,5.97c0,1.1,0.3,2.17,0.87,3.11c0.21,0.35,0.1,0.8-0.24,1.01C403.22,141.87,403.08,141.9,402.95,141.9z"
				/>
		</g>
		<g>
			<path class="st3" d="M416.66,169.33c-0.09,0-0.18-0.02-0.27-0.05c-7.6-3.02-12.5-10.25-12.5-18.43
				c0-10.93,8.89-19.82,19.82-19.82c6.98,0,13.53,3.74,17.08,9.76c0.21,0.35,0.09,0.8-0.26,1.01c-0.35,0.21-0.8,0.09-1.01-0.26
				c-3.29-5.57-9.35-9.04-15.81-9.04c-10.12,0-18.35,8.23-18.35,18.35c0,7.57,4.54,14.26,11.57,17.06c0.38,0.15,0.56,0.58,0.41,0.96
				C417.23,169.15,416.95,169.33,416.66,169.33z"/>
		</g>
		<g>
			<path class="st3" d="M423.19,166.36c-0.01,0-0.02,0-0.03,0c-8.4-0.29-14.98-7.1-14.98-15.51c0-8.56,6.96-15.52,15.52-15.52
				c7.7,0,14.31,5.74,15.37,13.35c0.06,0.4-0.22,0.78-0.63,0.83c-0.4,0.06-0.78-0.22-0.83-0.63c-0.96-6.89-6.94-12.08-13.91-12.08
				c-7.74,0-14.04,6.3-14.04,14.04c0,7.61,5.95,13.78,13.56,14.04c0.41,0.01,0.73,0.36,0.71,0.76
				C423.91,166.05,423.59,166.36,423.19,166.36z"/>
		</g>
		<g>
			<path class="st3" d="M423.7,162.29c-6.31,0-11.44-5.13-11.44-11.44s5.13-11.44,11.44-11.44c6.31,0,11.44,5.13,11.44,11.44
				S430.01,162.29,423.7,162.29z M423.7,140.88c-5.5,0-9.97,4.47-9.97,9.97c0,5.5,4.47,9.97,9.97,9.97c5.5,0,9.97-4.47,9.97-9.97
				C433.67,145.35,429.2,140.88,423.7,140.88z"/>
		</g>
		<g>
			<path class="st3" d="M423.7,158.28c-4.09,0-7.43-3.33-7.43-7.43c0-4.09,3.33-7.43,7.43-7.43c4.09,0,7.43,3.33,7.43,7.43
				C431.13,154.95,427.8,158.28,423.7,158.28z M423.7,144.9c-3.28,0-5.95,2.67-5.95,5.95c0,3.28,2.67,5.95,5.95,5.95
				c3.28,0,5.95-2.67,5.95-5.95C429.66,147.57,426.99,144.9,423.7,144.9z"/>
		</g>
		<g>
			<path class="st3" d="M423.7,153.9c-1.68,0-3.05-1.37-3.05-3.05c0-1.68,1.37-3.05,3.05-3.05c1.68,0,3.05,1.37,3.05,3.05
				C426.76,152.53,425.39,153.9,423.7,153.9z M423.7,149.27c-0.87,0-1.58,0.71-1.58,1.58s0.71,1.58,1.58,1.58
				c0.87,0,1.58-0.71,1.58-1.58S424.58,149.27,423.7,149.27z"/>
		</g>
		<g>
			<g>
				<path class="st3" d="M382.66,155.98c-0.27,0-0.52-0.15-0.66-0.4c-0.19-0.36-0.05-0.81,0.32-0.99
					c9.9-5.13,16.04-15.24,16.04-26.38c0-6.37-1.99-12.44-5.75-17.56c-0.24-0.33-0.17-0.79,0.16-1.03c0.33-0.24,0.79-0.17,1.03,0.16
					c3.95,5.37,6.03,11.75,6.03,18.43c0,11.69-6.45,22.3-16.84,27.69C382.89,155.96,382.77,155.98,382.66,155.98z"/>
			</g>
			<g>
				<path class="st3" d="M381.25,151.87c-0.26,0-0.51-0.14-0.65-0.38c-0.2-0.36-0.07-0.8,0.29-1c8.13-4.47,13.17-13.01,13.17-22.28
					c0-5.3-1.62-10.38-4.67-14.69c-0.24-0.33-0.16-0.79,0.17-1.03c0.33-0.24,0.79-0.16,1.03,0.17c3.23,4.56,4.94,9.93,4.94,15.54
					c0,9.81-5.34,18.84-13.94,23.57C381.49,151.84,381.37,151.87,381.25,151.87z"/>
			</g>
			<g>
				<path class="st3" d="M379.93,148c-0.25,0-0.5-0.13-0.63-0.36c-0.21-0.35-0.09-0.8,0.26-1.01c6.48-3.84,10.5-10.9,10.5-18.42
					c0-4.3-1.27-8.45-3.68-12c-0.23-0.34-0.14-0.79,0.2-1.02c0.34-0.23,0.8-0.14,1.02,0.2c2.57,3.79,3.93,8.22,3.93,12.82
					c0,8.04-4.3,15.58-11.23,19.69C380.19,147.97,380.06,148,379.93,148z"/>
			</g>
			<g>
				<path class="st3" d="M378.55,143.95c-0.24,0-0.47-0.12-0.62-0.33c-0.22-0.34-0.13-0.8,0.21-1.02c4.85-3.2,7.75-8.58,7.75-14.38
					c0-3.27-0.92-6.45-2.66-9.2c-0.22-0.34-0.12-0.8,0.23-1.02c0.34-0.22,0.8-0.12,1.02,0.23c1.89,2.98,2.89,6.44,2.89,9.99
					c0,6.3-3.14,12.14-8.41,15.61C378.83,143.91,378.69,143.95,378.55,143.95z"/>
			</g>
			<g>
				<path class="st3" d="M377.07,139.62c-0.22,0-0.43-0.1-0.58-0.28c-0.25-0.32-0.2-0.78,0.12-1.04c3.11-2.45,4.9-6.13,4.9-10.09
					c0-2.19-0.56-4.35-1.62-6.25c-0.2-0.36-0.07-0.8,0.28-1c0.36-0.2,0.8-0.07,1,0.28c1.18,2.12,1.81,4.53,1.81,6.97
					c0,4.42-1.99,8.52-5.46,11.25C377.39,139.57,377.23,139.62,377.07,139.62z"/>
			</g>
		</g>
	</g>
	<g>
		<path class="st3" d="M0.4,50.91h65.75v3.9c-10.46,0.3-17.06,1.66-19.81,4.08c-2.75,2.42-4.13,7.8-4.13,16.14v32.38h58.49V75.03
			c0-8.22-1.39-13.57-4.17-16.05c-2.78-2.48-9.43-3.87-19.95-4.17l-0.09-3.9h65.93v3.9c-10.46,0.3-17.09,1.68-19.9,4.13
			c-2.81,2.45-4.22,7.81-4.22,16.1v74.72c0,8.29,1.37,13.65,4.13,16.1c2.75,2.45,9.41,3.82,19.99,4.13v3.9H76.49l0.09-3.9
			c10.58-0.3,17.24-1.68,20-4.13c2.75-2.45,4.12-7.81,4.12-16.1v-38.45H42.21v38.45c0,8.34,1.35,13.73,4.04,16.15
			c2.69,2.42,9.29,3.78,19.81,4.08l0.09,3.9H0.4v-3.9c10.52-0.3,17.14-1.66,19.86-4.08c2.72-2.42,4.08-7.8,4.08-16.15V75.03
			c0-8.28-1.36-13.65-4.08-16.1c-2.72-2.45-9.34-3.82-19.86-4.13V50.91z"/>
		<path class="st3" d="M207.42,124.82v34.92c0,5.5,0.32,9.05,0.95,10.65c0.63,1.61,1.74,2.41,3.31,2.41c2.42,0,4.46-1.89,6.12-5.67
			c1.66-3.78,2.49-8.66,2.49-14.64v-1.63h3.27c0,0.91-0.03,1.97-0.09,3.17c-0.06,1.21-0.09,1.94-0.09,2.18
			c0,6.59-1.41,11.77-4.22,15.55c-2.81,3.78-6.67,5.67-11.56,5.67c-4.17,0-7.48-1.51-9.93-4.54c-2.45-3.02-3.76-7.25-3.95-12.69
			c-2.36,5.74-5.7,10.05-10.02,12.92c-4.32,2.87-9.66,4.31-16.01,4.31c-7.07,0-12.77-1.85-17.09-5.53
			c-4.33-3.69-6.49-8.53-6.49-14.51c0-8.4,3.96-15.16,11.88-20.27c7.92-5.11,20.31-8.87,37.18-11.29v-9.88
			c0-7.07-1.28-12.12-3.85-15.15c-2.57-3.02-6.82-4.53-12.74-4.53c-4.65,0-8.81,0.83-12.47,2.49c-3.66,1.66-5.49,3.31-5.49,4.94
			c0,0.24,0.64,0.73,1.9,1.45c5.02,2.72,7.52,5.89,7.52,9.52c0,2.36-0.94,4.4-2.81,6.12c-1.88,1.72-4.08,2.58-6.62,2.58
			c-2.9,0-5.31-1.01-7.21-3.04c-1.9-2.03-2.86-4.61-2.86-7.75c0-5.62,2.84-10.37,8.52-14.24c5.68-3.87,12.82-5.8,21.4-5.8
			c4.96,0,9.51,0.77,13.65,2.31c4.14,1.54,7.39,3.67,9.75,6.39c2,2.36,3.41,5.11,4.26,8.25C207,112.64,207.42,117.75,207.42,124.82z
			 M193.19,129.27c-10.82,1.51-18.9,4.58-24.21,9.2c-5.32,4.63-7.98,10.87-7.98,18.73c0,4.78,1.12,8.57,3.36,11.38
			c2.23,2.81,5.26,4.22,9.07,4.22c5.86,0,10.63-2.89,14.28-8.66c3.66-5.77,5.49-13.41,5.49-22.9V129.27z"/>
		<path class="st3" d="M299.55,123.91v37.55c0,3.63,0.53,5.96,1.59,6.98c1.06,1.03,3.43,1.54,7.12,1.54h5.99v3.9h-42.72v-3.9h5.17
			c3.69,0,6.04-0.53,7.07-1.59c1.02-1.06,1.54-3.37,1.54-6.94v-46.98c0-5.32-0.97-9.31-2.9-11.97c-1.93-2.66-4.75-3.99-8.43-3.99
			c-7.07,0-12.88,4.04-17.41,12.11c-4.53,8.07-6.8,18.76-6.8,32.06v18.77c0,3.63,0.53,5.96,1.59,6.98s3.4,1.54,7.03,1.54h5.35v3.9
			H221.2v-3.9h5.35c3.81,0,6.26-0.5,7.35-1.5c1.09-0.99,1.63-3.34,1.63-7.03v-49.24c0-5.44-0.8-8.84-2.4-10.2
			c-1.61-1.36-5.28-2.04-11.02-2.04h-2v-3.9l29.66-0.91v23.03c2.3-7.74,5.79-13.68,10.48-17.82c4.68-4.14,10.23-6.21,16.64-6.21
			c7.62,0,13.3,2.46,17.05,7.39C297.68,106.49,299.55,113.94,299.55,123.91z"/>
	</g>
</g>
</svg>
