<?xml version="1.0" encoding="utf-8"?>
<!-- Generator: Adobe Illustrator 24.1.0, SVG Export Plug-In . SVG Version: 6.00 Build 0)  -->
<svg version="1.1" id="Layer_1" xmlns="http://www.w3.org/2000/svg" xmlns:xlink="http://www.w3.org/1999/xlink" x="0px" y="0px"
	 viewBox="0 0 119.42 77.33" style="enable-background:new 0 0 119.42 77.33;" xml:space="preserve">
<style type="text/css">
	.st0{fill:#83401B;}
</style>
<g>
	<g>
		<path class="st0" d="M26.97,75.69c-3.43,0-6.47-2.26-7.24-5.39c-0.06-0.23-0.14-0.44-0.22-0.62l-0.03-0.07v-3.64
			c0.2-0.33,0.5-0.51,1.25-0.51c0.18,0,0.37,0.01,0.56,0.02l0.91,0.07l0-41.46c0-3.47,1.98-6.12,5.29-7.09
			c0.5-0.15,1.05-0.22,1.63-0.3c0.29-0.04,0.58-0.08,0.88-0.13l0.71-0.12c0,0,0-8.53,0-10.88c0-2.43,1.49-3.94,3.89-3.94h50.2
			c2.35,0,3.88,1.52,3.88,3.86c0,2.19,0,4.39,0,6.58l0,4.44l0.83,0.15c0.09,0.02,0.2,0.04,0.34,0.04l0.16,0
			c1.87,0,3.64,0.74,4.98,2.09c1.43,1.44,2.25,3.46,2.23,5.53c-0.07,9.41-0.06,18.97-0.05,28.22c0.01,3.69,0.01,7.39,0.01,11.08
			v1.85h0.85l0.77-0.01c0.13,0,0.25,0,0.37,0.01c0.37,0.02,0.69,0.25,0.7,0.5l0.01,0.32c0.05,1.1,0.09,2.23-0.07,3.27
			c-0.55,3.53-3.66,6.09-7.38,6.09c-10.83-0.02-21.66-0.03-32.48-0.03c-10.99,0-21.98,0.01-32.98,0.04H26.97z M20.88,68.09
			c0.07,0.29,0.13,0.58,0.18,0.86c0.13,0.65,0.26,1.33,0.55,1.96c1.01,2.15,2.92,3.25,5.69,3.25c12.33,0,64.96,0,64.96,0l0.16,0
			c0.1,0,0.2,0,0.3-0.01c1.75-0.09,3.3-0.81,4.35-2.05c1-1.18,1.45-2.7,1.28-4.3l-0.08-0.75H20.62L20.88,68.09z M29.55,18.27
			c-3.43,0-5.82,2.49-5.83,6.05c-0.01,11.12,0,22.24,0,33.35l0,6.27c0,0.19,0.02,0.37,0.03,0.55l0.07,0.96h71.85l0-28.26
			c0-4.29,0-8.59-0.01-12.88c-0.01-3.49-2.41-6.02-5.71-6.02c-0.16,0-0.33,0.01-0.5,0.02l-0.78,0.06l0,3.41c0,1.76,0,3.53-0.01,5.29
			c0,0.23-0.01,0.49-0.07,0.66c-0.1,0.28-0.38,0.47-0.69,0.47c-0.05,0-0.1,0-0.15-0.01c-0.54-0.11-0.6-0.65-0.6-0.88
			c-0.01-2.71-0.01-5.41-0.01-8.12l0-4.41H38.64v0.85c0,0.71,0,1.41-0.01,2.11c-0.01,1.51-0.02,3.08,0.02,4.62
			c0.02,0.8,0.06,2.91-0.19,3.17c-0.08,0.06-0.53,0.11-0.68,0.13c-0.06,0.01-0.11,0.01-0.16,0.01c-0.11,0-0.15-0.02-0.15-0.02
			c-0.15-0.13-0.33-0.8-0.33-3.26v-7.63h-4.84l-0.05,1c-0.01,0.14-0.02,0.26-0.02,0.38l0,5.69c0,9.55,0,19.09,0,28.64
			c0,1.71,0.87,2.54,2.65,2.54h49.65c1.84,0,2.66-0.83,2.66-2.69l0-3.78c0-1.95,0-3.89,0-5.84c0-0.23,0-0.51,0.06-0.68
			c0.1-0.29,0.38-0.48,0.7-0.48c0.04,0,0.09,0,0.14,0.01c0.38,0.07,0.61,0.38,0.61,0.84c0,1.11-0.01,2.21-0.01,3.32
			c-0.02,2.2-0.03,4.49,0.05,6.73c0.04,1.1-0.34,2.12-1.06,2.87c-0.77,0.8-1.86,1.24-3.07,1.24c-8.27-0.03-16.64-0.05-24.89-0.05
			c-8.25,0-16.62,0.02-24.87,0.05c-1.19,0-2.25-0.42-3-1.18c-0.75-0.76-1.16-1.8-1.15-2.95c0.06-7.34,0.05-14.8,0.04-22.01
			c0-2.77-0.01-5.54-0.01-8.31v-1.74l-0.8-0.04C29.79,18.27,29.67,18.27,29.55,18.27z M34.64,3.16c-1.52,0.05-2.38,0.91-2.41,2.41
			c-0.01,0.7-0.01,1.39-0.01,2.09l0,5.51h54.96V6.01c0-2.11-0.76-2.86-2.9-2.86l-49.44,0L34.64,3.16z"/>
	</g>
	<g>
		<path class="st0" d="M63.74,41.01c-0.82-0.01-1.07-0.26-1.08-1.08c-0.01-1.43-0.01-2.87-0.01-4.3l0-3.54c0-1.39,0-2.78,0-4.17
			c0-1.11,0.32-1.23,1.04-1.23l0.17,0c0.3,0.01,0.61,0.02,0.91,0.03c1.24,0.04,2.41,0.07,3.47,0.39c2.49,0.73,4.04,2.54,4.49,5.24
			c0.42,2.51-0.05,4.53-1.44,6.18c-1.32,1.57-2.97,2.38-5.03,2.48c-0.35,0.02-0.71,0.02-1.06,0.02
			C64.92,41.02,63.74,41.01,63.74,41.01z M65.7,28.19c-0.2,0-0.4,0.01-0.6,0.02l-0.79,0.05v11.17l0.8,0.05
			c0.19,0.01,0.38,0.02,0.57,0.02c2.21,0,3.82-0.84,4.81-2.49c1.22-2.05,1.22-4.3-0.01-6.34C69.49,29.02,67.88,28.19,65.7,28.19z"/>
	</g>
	<g>
		<path class="st0" d="M47.31,41.02c-0.07,0-0.13-0.01-0.19-0.03c-0.33-0.1-0.51-0.4-0.52-0.87l0.01-0.04
			c0.03-0.13,0.07-0.33,0.13-0.52c1.17-3.48,2.34-6.96,3.51-10.43l0.51-1.53c0.04-0.1,0.07-0.16,0.09-0.23
			c0.21-0.64,0.5-0.69,0.79-0.69c0.3,0,0.59,0.07,0.83,0.76c0.91,2.7,1.82,5.4,2.73,8.1l0.31,0.91c0.36,1.05,0.71,2.11,1.05,3.17
			c0.11,0.35,0.16,0.62,0.13,0.78c-0.04,0.26-0.15,0.54-0.67,0.61c-0.04,0.01-0.09,0.01-0.13,0.01c-0.23,0-0.52-0.07-0.6-0.43
			c-0.29-1.26-1.06-1.9-2.31-1.9c-0.15,0-0.31,0.01-0.47,0.02c-0.32,0.03-0.67,0.04-1.08,0.04c-0.41,0-0.81-0.01-1.22-0.03
			l-0.41-0.01c-0.82,0-1.37,0.44-1.56,1.23c-0.05,0.21-0.15,0.45-0.31,0.7C47.8,40.88,47.56,41.02,47.31,41.02z M49.21,37.1h4.87
			l-2.46-7.2L49.21,37.1z"/>
	</g>
	<g>
		<path class="st0" d="M87.92,34.59c-0.2,0-0.39-0.09-0.53-0.24c-0.14-0.15-0.22-0.35-0.21-0.55c0.02-0.39,0.36-0.72,0.75-0.72
			c0.21,0,0.4,0.09,0.54,0.24c0.14,0.15,0.22,0.35,0.21,0.55c-0.02,0.39-0.36,0.72-0.75,0.72L87.92,34.59z"/>
	</g>
	<g>
		<path class="st0" d="M37.88,32.01c-0.39-0.01-0.74-0.37-0.74-0.76c0-0.26,0.11-0.43,0.21-0.52c0.14-0.14,0.33-0.22,0.55-0.22
			c0.43,0.01,0.74,0.32,0.75,0.73c0,0.19-0.08,0.39-0.24,0.54c-0.15,0.15-0.33,0.23-0.51,0.23L37.88,32.01z"/>
	</g>
	<g>
		<path class="st0" d="M59.67,71.34c-0.92,0-1.85,0-2.77-0.01c-0.28,0-0.51-0.08-0.66-0.23c-0.16-0.16-0.19-0.38-0.19-0.54
			c0.01-0.64,0.6-0.72,0.85-0.73c0.37-0.01,0.73-0.01,1.1-0.01l1.69,0.01l1.69-0.01c0.37,0,0.73,0,1.1,0.01
			c0.29,0.01,0.53,0.09,0.67,0.25c0.13,0.13,0.19,0.31,0.18,0.52c-0.01,0.45-0.33,0.72-0.85,0.73
			C61.55,71.33,60.61,71.34,59.67,71.34z"/>
	</g>
	<g>
		<path class="st0" d="M62.68,8.93c-0.41,0-0.75-0.11-0.93-0.29c-0.12-0.12-0.17-0.27-0.16-0.47c0.01-0.49,0.38-0.74,1.09-0.74
			l8.41,0l8.41,0c1.03,0,1.03,0.53,1.03,0.75c0,0.23,0,0.75-1.02,0.76l-3.71,0L62.68,8.93z"/>
	</g>
	<g>
		<path class="st0" d="M38.47,8.93c-0.2,0-0.38-0.08-0.52-0.22c-0.14-0.15-0.22-0.34-0.22-0.55c0.01-0.4,0.34-0.73,0.74-0.73
			c0.19,0,0.4,0.1,0.55,0.25c0.15,0.15,0.23,0.33,0.22,0.51C39.24,8.56,38.86,8.92,38.47,8.93L38.47,8.93z"/>
	</g>
	<g>
		<path class="st0" d="M45.65,8.93c-0.4,0-0.78-0.36-0.78-0.75c0-0.17,0.08-0.36,0.23-0.51c0.15-0.16,0.36-0.25,0.55-0.25
			c0.42,0.01,0.73,0.33,0.73,0.74c0,0.42-0.3,0.75-0.71,0.76L45.65,8.93z"/>
	</g>
	<g>
		<path class="st0" d="M52.79,8.92c-0.4-0.01-0.73-0.35-0.74-0.74c0-0.2,0.08-0.39,0.22-0.53c0.14-0.15,0.33-0.23,0.53-0.23
			c0.41,0.01,0.74,0.35,0.75,0.74c0,0.2-0.08,0.39-0.22,0.53C53.19,8.84,53,8.92,52.8,8.92H52.79z"/>
	</g>
</g>
</svg>
