<?xml version="1.0" encoding="utf-8"?>
<!-- Generator: Adobe Illustrator 24.1.0, SVG Export Plug-In . SVG Version: 6.00 Build 0)  -->
<svg version="1.1" id="Layer_1" xmlns="http://www.w3.org/2000/svg" xmlns:xlink="http://www.w3.org/1999/xlink" x="0px" y="0px"
	 viewBox="0 0 446.9 198.4" style="enable-background:new 0 0 446.9 198.4;" xml:space="preserve">
<style type="text/css">
	.st0{fill:#727271;}
	.st1{fill:#DF6182;}
	.st2{fill:#FFFFFF;stroke:#DF6182;stroke-width:2.808;stroke-miterlimit:10;}
	.st3{fill:#3B245D;}
</style>
<g>
	<g>
		<path class="st0" d="M0,187.2h1.6l1.6,6.5l0.4,2.2c0.1-0.4,0.2-0.7,0.2-1c0-0.2,0.1-0.4,0.1-0.6c0-0.1,0.1-0.2,0.1-0.3
			c0-0.1,0.1-0.2,0.1-0.3l2-6.5h1.6l1.9,6.5c0.1,0.1,0.1,0.3,0.1,0.5c0,0.2,0.1,0.4,0.1,0.6l0.2,1.1c0.1-0.4,0.1-0.8,0.2-1.1
			s0.1-0.7,0.2-1.1l1.7-6.5H14l-3,10.9H9.4l-2.5-8.9l-2.5,8.9H2.8L0,187.2z"/>
		<path class="st0" d="M29.2,187.2h7.9v1.4h-6.4v3.2h5.9v1.4h-5.9v3.6h6.5v1.4h-8C29.2,198.1,29.2,187.2,29.2,187.2z"/>
		<path class="st0" d="M70.8,198.1v-10.9h1.8l3.4,9.1l3.3-9.1h1.8v10.9h-1.3v-8.8l-3.2,8.8h-1.2l-3.3-8.8v8.8H70.8z"/>
		<path class="st0" d="M100.4,187.2h1.6l3.9,10.9h-1.7l-1.1-3.3H99l-1.2,3.3h-1.6L100.4,187.2z M101.2,188.8l-1.7,4.8h3.3
			L101.2,188.8z"/>
		<path class="st0" d="M121.2,187.2h1.5v5.3l5.2-5.3h2l-4.4,4.5l4.4,6.5h-1.8l-3.6-5.5l-1.7,1.7v3.8h-1.5L121.2,187.2L121.2,187.2z"
			/>
		<path class="st0" d="M145.1,187.2h7.9v1.4h-6.4v3.2h5.9v1.4h-5.9v3.6h6.4v1.4h-8V187.2z"/>
		<path class="st0" d="M185.8,187.2h1.6l1.6,6.5l0.4,2.2c0.1-0.4,0.2-0.7,0.2-1c0.1-0.2,0.1-0.4,0.1-0.6c0-0.1,0.1-0.2,0.1-0.3
			c0-0.1,0.1-0.2,0.1-0.3l1.9-6.5h1.6l1.9,6.5c0.1,0.1,0.1,0.3,0.1,0.5c0,0.2,0.1,0.4,0.1,0.6l0.3,1.1c0.1-0.4,0.1-0.8,0.2-1.1
			s0.1-0.7,0.2-1.1l1.7-6.5h1.6l-3,10.9h-1.5l-2.5-8.9l-2.5,8.9h-1.6L185.8,187.2z"/>
		<path class="st0" d="M214.3,192.8c0-0.9,0.1-1.7,0.4-2.4c0.2-0.7,0.6-1.3,1.1-1.8c0.5-0.5,1-0.9,1.7-1.2c0.7-0.3,1.4-0.4,2.2-0.4
			c0.8,0,1.5,0.1,2.2,0.4s1.2,0.6,1.7,1.1c0.5,0.5,0.8,1.1,1.1,1.8c0.2,0.7,0.4,1.5,0.4,2.3c0,0.8-0.1,1.6-0.4,2.3
			c-0.2,0.7-0.6,1.3-1,1.8c-0.5,0.5-1,0.9-1.7,1.2c-0.7,0.3-1.4,0.4-2.3,0.4c-0.8,0-1.5-0.1-2.2-0.4c-0.6-0.3-1.2-0.6-1.7-1.1
			c-0.5-0.5-0.8-1.1-1.1-1.8C214.4,194.4,214.3,193.6,214.3,192.8z M215.9,192.7c0,0.6,0.1,1.2,0.3,1.8c0.2,0.5,0.4,1,0.7,1.3
			c0.3,0.4,0.7,0.6,1.2,0.8c0.5,0.2,1,0.3,1.6,0.3s1.1-0.1,1.6-0.3c0.4-0.2,0.8-0.5,1.2-0.9c0.3-0.4,0.6-0.8,0.7-1.4
			c0.2-0.6,0.2-1.2,0.2-1.9c0-0.7-0.1-1.3-0.2-1.8s-0.4-1-0.7-1.3c-0.3-0.4-0.7-0.6-1.2-0.8c-0.5-0.2-1-0.3-1.6-0.3
			c-0.6,0-1.1,0.1-1.6,0.3c-0.5,0.2-0.9,0.5-1.2,0.9c-0.3,0.4-0.6,0.8-0.7,1.4C216,191.4,215.9,192,215.9,192.7z"/>
		<path class="st0" d="M239.8,192.8c0-0.9,0.1-1.7,0.4-2.4c0.2-0.7,0.6-1.3,1.1-1.8c0.5-0.5,1-0.9,1.7-1.2c0.7-0.3,1.4-0.4,2.2-0.4
			c0.8,0,1.5,0.1,2.2,0.4s1.2,0.6,1.7,1.1c0.5,0.5,0.8,1.1,1.1,1.8c0.2,0.7,0.4,1.5,0.4,2.3c0,0.8-0.1,1.6-0.4,2.3
			c-0.2,0.7-0.6,1.3-1,1.8c-0.5,0.5-1,0.9-1.7,1.2c-0.7,0.3-1.4,0.4-2.3,0.4c-0.8,0-1.5-0.1-2.2-0.4c-0.6-0.3-1.2-0.6-1.7-1.1
			c-0.5-0.5-0.8-1.1-1.1-1.8C239.9,194.4,239.8,193.6,239.8,192.8z M241.4,192.7c0,0.6,0.1,1.2,0.3,1.8c0.2,0.5,0.4,1,0.7,1.3
			c0.3,0.4,0.7,0.6,1.2,0.8c0.5,0.2,1,0.3,1.6,0.3s1.1-0.1,1.6-0.3c0.4-0.2,0.8-0.5,1.2-0.9c0.3-0.4,0.6-0.8,0.7-1.4
			c0.2-0.6,0.2-1.2,0.2-1.9c0-0.7-0.1-1.3-0.2-1.8s-0.4-1-0.7-1.3c-0.3-0.4-0.7-0.6-1.2-0.8c-0.5-0.2-1-0.3-1.6-0.3
			c-0.6,0-1.1,0.1-1.6,0.3c-0.5,0.2-0.9,0.5-1.2,0.9c-0.3,0.4-0.6,0.8-0.7,1.4C241.5,191.4,241.4,192,241.4,192.7z"/>
		<path class="st0" d="M266.1,187.2h3.7c0.9,0,1.6,0.1,2.1,0.1c0.5,0.1,0.9,0.3,1.3,0.6c1.3,1,1.9,2.5,1.9,4.6
			c0,1.2-0.2,2.3-0.7,3.3c-0.5,0.9-1.1,1.6-1.9,2c-0.1,0.1-0.3,0.1-0.5,0.2c-0.2,0-0.4,0.1-0.6,0.1c-0.2,0-0.4,0.1-0.7,0.1
			c-0.2,0-0.5,0-0.8,0h-3.8V187.2z M267.6,188.6v8.2h2.2c1,0,1.8-0.2,2.2-0.5c1-0.7,1.5-1.9,1.5-3.8c0-0.9-0.1-1.7-0.5-2.3
			s-0.8-1.1-1.3-1.4c-0.4-0.2-1-0.3-2-0.3L267.6,188.6L267.6,188.6z"/>
		<path class="st0" d="M290.8,187.2h7.9v1.4h-6.4v3.2h5.9v1.4h-5.9v3.6h6.5v1.4h-8L290.8,187.2L290.8,187.2z"/>
		<path class="st0" d="M314.6,187.2h1.7l5,8.6v-8.6h1.5v10.9h-1.7l-5-8.7v8.7h-1.5L314.6,187.2L314.6,187.2z"/>
		<path class="st0" d="M356.3,187.2h8.8v1.4h-3.6v9.6h-1.5v-9.6h-3.6L356.3,187.2L356.3,187.2z"/>
		<path class="st0" d="M383.4,187.2h1.6l3.9,10.9h-1.6l-1.1-3.3H382l-1.2,3.3h-1.6L383.4,187.2z M384.2,188.8l-1.7,4.8h3.3
			L384.2,188.8z"/>
		<path class="st0" d="M404.2,187.2h1.5v9.6h5.5v1.4h-7.1V187.2z"/>
		<path class="st0" d="M426.4,187.2h1.5v5.3l5.2-5.3h2l-4.4,4.5l4.4,6.5h-1.8l-3.6-5.5l-1.7,1.7v3.8h-1.5L426.4,187.2L426.4,187.2z"
			/>
	</g>
	<g>
		<path class="st1" d="M441.1,96.6c0.5,0,1,0.1,1.5,0.2s1,0.3,1.4,0.6s0.8,0.6,1.2,0.9s0.6,0.7,0.9,1.2c0.2,0.4,0.5,0.9,0.6,1.4
			c0.1,0.5,0.2,1,0.2,1.5c0,0.5-0.1,1.1-0.2,1.6c-0.1,0.5-0.4,1-0.6,1.4c-0.3,0.4-0.6,0.8-0.9,1.2s-0.8,0.6-1.2,0.9
			c-0.4,0.2-0.9,0.4-1.4,0.6s-1,0.2-1.5,0.2c-0.5,0-1-0.1-1.5-0.2c-0.5-0.1-0.9-0.3-1.4-0.6c-0.4-0.3-0.8-0.6-1.2-0.9
			c-0.4-0.3-0.6-0.7-0.9-1.2s-0.5-0.9-0.6-1.4c-0.1-0.5-0.2-1-0.2-1.5c0-0.5,0.1-1,0.2-1.4c0.1-0.5,0.3-0.9,0.6-1.3
			c0.2-0.4,0.5-0.8,0.9-1.2c0.3-0.4,0.7-0.7,1.1-0.9c0.4-0.3,0.9-0.5,1.4-0.6C440,96.7,440.6,96.6,441.1,96.6z M446.1,102.4
			c0-0.7-0.1-1.4-0.4-2c-0.3-0.6-0.6-1.2-1.1-1.6c-0.5-0.4-1-0.8-1.6-1.1c-0.6-0.2-1.2-0.4-1.9-0.4c-0.5,0-1,0.1-1.4,0.2
			c-0.4,0.1-0.8,0.3-1.2,0.5s-0.7,0.5-1,0.8c-0.3,0.3-0.5,0.7-0.8,1c-0.2,0.4-0.4,0.8-0.5,1.2c-0.1,0.4-0.2,0.8-0.2,1.2
			c0,0.4,0.1,0.9,0.2,1.3c0.1,0.4,0.3,0.8,0.5,1.2c0.2,0.4,0.5,0.7,0.8,1c0.3,0.3,0.6,0.6,1,0.8c0.4,0.2,0.8,0.4,1.2,0.5
			c0.4,0.1,0.9,0.2,1.3,0.2c0.7,0,1.3-0.1,1.9-0.4c0.6-0.2,1.1-0.6,1.6-1s0.8-1,1.1-1.6C446,103.8,446.1,103.1,446.1,102.4z
			 M441.3,99c1.8,0,2.7,0.6,2.7,1.8c0,0.5-0.1,0.8-0.4,1.2s-0.6,0.5-1.1,0.6l1.5,3h-1.4l-1.3-2.8H440v2.8h-1.2V99L441.3,99L441.3,99
			z M441,99.8h-1v2.2h1c0.6,0,1-0.1,1.3-0.2c0.3-0.2,0.4-0.4,0.4-0.8c0-0.4-0.1-0.7-0.4-0.9C442.1,99.9,441.6,99.8,441,99.8z"/>
	</g>
	<path class="st1" d="M387.9,131c0.3-1.7,0.7-3.3,1.3-4.9c-1.1,0.6-2.3,1.3-3.4,1.8c-2.3,1.2-4.6,2.3-7,3.5
		c-3.2,1.5-6.4,2.8-9.6,3.9c-3.2,1.1-6.5,2.2-9.8,3.3l5.5-12.8l1.1-2.9c0.9-0.7,1.7-1.5,2.5-2.2s1.7-1.5,2.5-2.3
		c1.9-1.7,3.7-3.5,5.4-5.3c1.7-1.9,3.3-3.9,4.7-6.1c1.1-1.9,2-4,2.5-6.1c0.5-2.1,0.6-4.3,0.2-6.6c-0.1-0.5-0.4-0.8-0.9-1.1
		s-0.9-0.3-1.3-0.1c-2.3,0.6-4.2,1.6-5.8,3c-1.6,1.4-3,3.1-4.2,5s-2.2,3.9-3.1,5.9c-0.9,2.1-1.7,4.1-2.5,6l-3.3,7.7
		c-3.6,2.8-7.3,5.5-11.1,8c-3.9,2.5-7.8,4.7-12,6.7c-2,1-4.2,1.8-6.4,2.4c-2.3,0.6-4.6,1-6.9,1.1c-2.3,0.1-4.6-0.1-6.8-0.7
		s-4.3-1.7-6.1-3.3c-1.7-1.5-3-3.1-4-5c-0.9-1.9-1.6-3.9-2-6c-0.4-2.1-0.6-4.2-0.6-6.4s0.1-4.3,0.4-6.3c0.6-5.3,1.7-10.5,3.5-15.4
		s3.9-9.8,6.5-14.4c6.6-2.4,13.1-4.8,19.7-7.2c6.6-2.4,13.1-4.9,19.7-7.5c9.5-3.7,19-7.7,28.4-12c4-1.9,8-3.8,11.8-5.9
		c3.9-2.1,7.5-4.5,11-7.2c3.4-2.6,6.5-5.6,9.4-8.9s5.1-7,6.7-11c0.7-1.9,1.2-3.8,1.5-5.8c0.3-2,0.2-4-0.1-5.9
		c-0.4-1.9-1.1-3.6-2.2-5.1s-2.8-2.7-4.9-3.6c-1.9-0.8-4-1.2-6.1-1.2s-4.2,0.2-6.3,0.7c-2.1,0.5-4.2,1.1-6.2,1.9
		c-2,0.8-3.9,1.6-5.7,2.3c-8.3,3.5-16.3,7.8-23.9,13c-7.9,5.3-15.1,11.2-21.7,17.7c-6.6,6.5-12.8,13.5-18.6,20.8
		c-2.8,3.5-5.4,7-8,10.7c-2.5,3.6-4.9,7.3-7,11.2c-4,1.4-7.9,2.9-11.8,4.5c-3.9,1.5-7.8,3.1-11.7,4.7c-8.8,3.6-17.5,7.6-25.9,11.9
		c-8.4,4.3-16.6,9.2-24.4,14.6c-3.9,2.7-7.6,5.5-11.2,8.4c-3.6,2.9-7.1,6-10.4,9.2c-3.1,3.1-6,6.3-8.8,9.8c-2.8,3.4-5,7.2-6.7,11.4
		c-1.6,3.9-2.5,7.9-2.6,12c0,0.7,0.3,1.1,1,1c0.7,0,1.1-0.4,1.2-1c0.6-4.9,2.2-9.6,4.7-13.9c2.5-4.3,5.4-8.3,8.8-11.9
		c3.5-3.8,7.2-7.4,11.1-10.7s7.9-6.5,12-9.5c8.3-6,17-11.3,26.1-16s18.3-8.9,27.8-12.8c3.1-1.3,6.2-2.6,9.3-3.8
		c3.1-1.2,6.3-2.4,9.4-3.5c-2,4.1-3.8,8.3-5.2,12.6c-1.4,4.2-2.5,8.7-3.1,13.3c-0.6,4.3-0.6,8.7-0.2,13.2c0.4,4.5,1.9,8.6,4.6,12.3
		c1.4,1.9,3,3.4,4.8,4.6c1.8,1.2,3.8,2.1,5.8,2.7c2.1,0.6,4.2,0.9,6.4,1c2.2,0,4.4-0.1,6.6-0.6c5-1,9.8-2.8,14.4-5.5
		c4.6-2.7,8.9-5.5,13.1-8.4l0.7-0.7c-0.9,2.1-1.8,4.2-2.7,6.3c-0.9,2.1-1.9,4.2-2.9,6.3l-3.6,1.1c-4.4,1.3-8.8,2.7-13.4,4.2
		c-4.5,1.5-8.9,3.2-13.2,5.2s-8.3,4.3-12.1,6.9s-7.3,5.8-10.4,9.4c-0.9,1.1-1.7,2.3-2.5,3.6c-0.8,1.4-1.3,2.8-1.5,4.2
		s-0.1,2.8,0.4,4.1c0.5,1.3,1.5,2.4,3,3.2c1.8,1,3.7,1.6,5.8,1.8c2.1,0.2,4.1,0.2,6.1,0.1c3.6-0.3,7.1-1.2,10.4-2.6
		c3.3-1.4,6.4-3.1,9.3-5.2s5.6-4.4,8.1-7.1c2.5-2.7,4.7-5.5,6.6-8.4c1.9-2.8,3.6-5.6,5.1-8.5c1.5-2.9,3-5.9,4.4-9
		c3.9-1.1,7.7-2.4,11.5-3.7c3.8-1.3,7.5-2.8,11.1-4.4c2.5-1.1,4.9-2.4,7.3-3.6C387.5,131.2,387.7,131.1,387.9,131z M370.4,111.6
		c0.5-1.2,1.1-2.4,1.6-3.7c0.9-2,2-4,3.2-5.9c1.2-1.9,2.9-3.4,4.9-4.5l0.1,0.1c-0.1,2.1-0.6,4.1-1.6,5.9c-1,1.9-2.2,3.6-3.6,5.2
		c-1,1.1-2,2.2-3,3.3c-1,1.1-2.1,2.1-3.2,3.2C369.4,114.1,369.9,112.8,370.4,111.6z M325.1,68.5c1.9-2.8,3.9-5.4,5.9-8
		c5.3-7,11.1-13.7,17.2-20c6.1-6.3,12.8-12,20-17.1l0.2-0.4c7-5,14.5-9.4,22.5-13.1c1.7-0.8,3.5-1.7,5.5-2.5c2-0.9,4-1.7,6.1-2.3
		c2.1-0.7,4.1-1.1,6.3-1.3c2.1-0.2,4.1-0.1,6.1,0.4c2.5,0.7,4.3,1.8,5.3,3.3s1.5,3.4,1.5,5.4s-0.4,4.1-1.1,6.2
		c-0.7,2.1-1.6,4-2.5,5.6c-2.2,3.6-4.8,6.9-7.8,9.9c-3,3-6.3,5.6-9.8,8s-7.2,4.4-10.9,6.3c-3.7,1.8-7.5,3.6-11.4,5.3
		c-4.6,2-9.2,4-13.9,5.9c-4.7,1.9-9.4,3.8-14.1,5.7c-5.1,1.9-10.2,3.8-15.2,5.7s-10.1,3.7-15.2,5.6
		C321.4,74.1,323.2,71.3,325.1,68.5z M346.3,155.5c-2.1,3.5-4.5,6.8-7.2,9.8s-5.6,5.8-8.9,8.1s-7,4.2-11,5.4l0.1-0.2
		c-2.1,0.6-4.3,1.1-6.6,1.4c-2.3,0.3-4.6,0.2-6.7-0.3c-0.7-0.2-1.4-0.4-2-0.6c-0.6-0.2-1.2-0.5-1.8-0.9l-0.2-0.2
		c-0.2-0.2-0.2-0.3-0.2-0.4c0.1,0.2,0.1,0.3,0.1,0.3c0,0,0,0-0.1-0.1s-0.1-0.4-0.2-0.9c-0.1-0.3-0.1-0.8-0.1-1.5
		c0.1-0.8,0.3-1.6,0.7-2.4c0.4-0.8,0.8-1.5,1.2-2.1c2.6-3.8,5.9-7.1,9.9-9.8c4-2.8,8-5.1,12.1-7c4.1-1.9,8.3-3.6,12.5-5
		c4.2-1.4,8.5-2.8,12.9-4.1l1.5-0.4C350.4,148.4,348.4,152,346.3,155.5z"/>
	<circle class="st2" cx="409.1" cy="137.6" r="36.1"/>
	<g>
		<g>
			<path class="st3" d="M439.8,135.4c-0.4,0-0.7-0.3-0.7-0.7c-0.7-7.5-4.2-14.5-9.8-19.6c-5.6-5.2-12.9-8-20.6-8
				c-4.5,0-8.8,0.9-12.8,2.8c-0.4,0.2-0.8,0-1-0.4s0-0.8,0.4-1c4.2-1.9,8.7-2.9,13.4-2.9c8,0,15.7,3,21.6,8.4
				c5.9,5.4,9.5,12.7,10.2,20.5C440.5,135,440.2,135.4,439.8,135.4C439.8,135.4,439.8,135.4,439.8,135.4z"/>
		</g>
		<g>
			<path class="st3" d="M408.7,169.6c-9.2,0-17.9-4-24-10.9c-0.3-0.3-0.2-0.8,0.1-1c0.3-0.3,0.8-0.2,1,0.1
				c5.8,6.6,14.1,10.4,22.9,10.4c0.5,0,0.9,0,1.4,0c0.4,0,0.8,0.3,0.8,0.7c0,0.4-0.3,0.8-0.7,0.8
				C409.6,169.6,409.1,169.6,408.7,169.6z"/>
		</g>
		<g>
			<path class="st3" d="M405.9,165.7C405.9,165.7,405.9,165.7,405.9,165.7c-7.5-0.7-14.1-4.3-18.9-10c-0.3-0.3-0.2-0.8,0.1-1
				c0.3-0.3,0.8-0.2,1,0.1c4.5,5.4,10.9,8.8,17.9,9.5c0.4,0,0.7,0.4,0.7,0.8C406.6,165.4,406.3,165.7,405.9,165.7z"/>
		</g>
		<g>
			<path class="st3" d="M435.4,132.1c-0.3,0-0.6-0.2-0.7-0.6c-1.4-5.8-4.6-11-9.3-14.7c-4.8-3.8-10.5-5.9-16.7-5.9
				c-3.6,0-7.1,0.7-10.4,2.1c-0.4,0.2-0.8,0-1-0.4s0-0.8,0.4-1c3.5-1.5,7.2-2.2,11-2.2c6.4,0,12.6,2.2,17.6,6.2
				c4.9,3.9,8.4,9.4,9.8,15.5c0.1,0.4-0.1,0.8-0.5,0.9C435.5,132.1,435.4,132.1,435.4,132.1z"/>
		</g>
		<g>
			<path class="st3" d="M430,129.7c-0.3,0-0.6-0.2-0.7-0.5c-3.4-8.4-11.5-13.9-20.7-13.9c-3,0-5.9,0.6-8.7,1.8c-0.4,0.2-0.8,0-1-0.4
				s0-0.8,0.4-1c2.9-1.2,6-1.9,9.3-1.9c9.7,0,18.4,5.8,22,14.8c0.1,0.4,0,0.8-0.4,1C430.2,129.7,430.1,129.7,430,129.7z"/>
		</g>
		<g>
			<path class="st3" d="M403.2,160.8c-0.1,0-0.1,0-0.2,0c-4.8-1.1-9-3.7-12.2-7.4c-0.3-0.3-0.2-0.8,0.1-1c0.3-0.3,0.8-0.2,1,0.1
				c3,3.5,7,5.9,11.5,6.9c0.4,0.1,0.6,0.5,0.5,0.9C403.9,160.6,403.6,160.8,403.2,160.8z"/>
		</g>
		<g>
			<path class="st3" d="M425.2,128.8c-0.2,0-0.5-0.1-0.6-0.4c-3.3-5.6-9.4-9.1-15.9-9.1c-2.6,0-5.1,0.5-7.4,1.6
				c-0.4,0.2-0.8,0-1-0.4c-0.2-0.4,0-0.8,0.4-1c2.5-1.1,5.2-1.7,8-1.7c7,0,13.6,3.8,17.1,9.8c0.2,0.4,0.1,0.8-0.3,1
				C425.4,128.8,425.3,128.8,425.2,128.8z"/>
		</g>
		<g>
			<path class="st3" d="M401.5,156.1c-0.1,0-0.2,0-0.3-0.1c-3.1-1.2-5.8-3.3-8-5.9c-0.3-0.3-0.2-0.8,0.1-1c0.3-0.3,0.8-0.2,1,0.1
				c2,2.4,4.5,4.3,7.4,5.4c0.4,0.1,0.6,0.6,0.4,1C402.1,155.9,401.8,156.1,401.5,156.1z"/>
		</g>
		<g>
			<path class="st3" d="M420.1,129c-0.2,0-0.4-0.1-0.6-0.3c-2.7-3.3-6.6-5.1-10.9-5.1c-2.4,0-4.7,0.6-6.8,1.7
				c-0.4,0.2-0.8,0.1-1-0.3s-0.1-0.8,0.3-1c2.3-1.3,4.9-1.9,7.5-1.9c4.6,0,9,2.1,12,5.7c0.3,0.3,0.2,0.8-0.1,1
				C420.4,128.9,420.3,129,420.1,129z"/>
		</g>
		<g>
			<path class="st3" d="M400.9,151c-0.1,0-0.3,0-0.4-0.1c-1.9-1.1-3.4-2.6-4.7-4.4c-0.2-0.3-0.1-0.8,0.2-1c0.3-0.2,0.8-0.1,1,0.2
				c1.1,1.6,2.5,3,4.2,4c0.4,0.2,0.5,0.7,0.2,1C401.4,150.9,401.2,151,400.9,151z"/>
		</g>
		<g>
			<path class="st3" d="M401.5,146.4c-0.2,0-0.4-0.1-0.5-0.2c-1.3-1.2-2.4-2.7-3-4.3c-0.1-0.4,0-0.8,0.4-1c0.4-0.1,0.8,0,1,0.4
				c0.6,1.4,1.5,2.7,2.6,3.8c0.3,0.3,0.3,0.7,0.1,1C401.9,146.3,401.7,146.4,401.5,146.4z"/>
		</g>
		<g>
			<path class="st3" d="M401.5,130.4c-0.2,0-0.4-0.1-0.5-0.2c-0.3-0.3-0.2-0.8,0.1-1c2.1-1.9,4.8-2.9,7.6-2.9c2.8,0,5.5,1,7.6,2.9
				c0.3,0.3,0.3,0.7,0.1,1c-0.3,0.3-0.7,0.3-1,0.1c-1.8-1.6-4.2-2.5-6.6-2.5s-4.8,0.9-6.6,2.5C401.9,130.4,401.7,130.4,401.5,130.4z
				"/>
		</g>
		<g>
			<path class="st3" d="M403,141.9c-0.2,0-0.5-0.1-0.6-0.4c-0.7-1.2-1.1-2.5-1.1-3.9c0-4.1,3.3-7.4,7.4-7.4c1,0,2,0.2,2.9,0.6
				c0.4,0.2,0.5,0.6,0.4,1c-0.2,0.4-0.6,0.6-1,0.4c-0.7-0.3-1.5-0.5-2.3-0.5c-3.3,0-6,2.7-6,6c0,1.1,0.3,2.2,0.9,3.1
				c0.2,0.4,0.1,0.8-0.2,1C403.2,141.9,403.1,141.9,403,141.9z"/>
		</g>
		<g>
			<path class="st3" d="M416.7,169.3c-0.1,0-0.2,0-0.3-0.1c-7.6-3-12.5-10.2-12.5-18.4c0-10.9,8.9-19.8,19.8-19.8
				c7,0,13.5,3.7,17.1,9.8c0.2,0.4,0.1,0.8-0.3,1c-0.4,0.2-0.8,0.1-1-0.3c-3.3-5.6-9.4-9-15.8-9c-10.1,0-18.4,8.2-18.4,18.4
				c0,7.6,4.5,14.3,11.6,17.1c0.4,0.1,0.6,0.6,0.4,1C417.2,169.2,417,169.3,416.7,169.3z"/>
		</g>
		<g>
			<path class="st3" d="M423.2,166.4C423.2,166.4,423.2,166.4,423.2,166.4c-8.4-0.3-15-7.1-15-15.5c0-8.6,7-15.5,15.5-15.5
				c7.7,0,14.3,5.7,15.4,13.4c0.1,0.4-0.2,0.8-0.6,0.8c-0.4,0.1-0.8-0.2-0.8-0.6c-1-6.9-6.9-12.1-13.9-12.1c-7.7,0-14,6.3-14,14
				c0,7.6,6,13.8,13.6,14c0.4,0,0.7,0.4,0.7,0.8C423.9,166.1,423.6,166.4,423.2,166.4z"/>
		</g>
		<g>
			<path class="st3" d="M423.7,162.3c-6.3,0-11.4-5.1-11.4-11.4s5.1-11.4,11.4-11.4s11.4,5.1,11.4,11.4S430,162.3,423.7,162.3z
				 M423.7,140.9c-5.5,0-10,4.5-10,10s4.5,10,10,10s10-4.5,10-10S429.2,140.9,423.7,140.9z"/>
		</g>
		<g>
			<path class="st3" d="M423.7,158.3c-4.1,0-7.4-3.3-7.4-7.4c0-4.1,3.3-7.4,7.4-7.4c4.1,0,7.4,3.3,7.4,7.4S427.8,158.3,423.7,158.3z
				 M423.7,144.9c-3.3,0-6,2.7-6,5.9s2.7,5.9,6,5.9s6-2.7,6-5.9C429.7,147.6,427,144.9,423.7,144.9z"/>
		</g>
		<g>
			<path class="st3" d="M423.7,153.9c-1.7,0-3-1.4-3-3.1c0-1.7,1.4-3.1,3-3.1s3,1.4,3,3.1C426.8,152.5,425.4,153.9,423.7,153.9z
				 M423.7,149.3c-0.9,0-1.6,0.7-1.6,1.6s0.7,1.6,1.6,1.6s1.6-0.7,1.6-1.6S424.6,149.3,423.7,149.3z"/>
		</g>
		<g>
			<g>
				<path class="st3" d="M382.7,156c-0.3,0-0.5-0.1-0.7-0.4c-0.2-0.4,0-0.8,0.3-1c9.9-5.1,16-15.2,16-26.4c0-6.4-2-12.4-5.8-17.6
					c-0.2-0.3-0.2-0.8,0.2-1c0.3-0.2,0.8-0.2,1,0.2c4,5.4,6,11.8,6,18.4c0,11.7-6.5,22.3-16.8,27.7C382.9,156,382.8,156,382.7,156z"
					/>
			</g>
			<g>
				<path class="st3" d="M381.2,151.9c-0.3,0-0.5-0.1-0.6-0.4c-0.2-0.4-0.1-0.8,0.3-1c8.1-4.5,13.2-13,13.2-22.3
					c0-5.3-1.6-10.4-4.7-14.7c-0.2-0.3-0.2-0.8,0.2-1c0.3-0.2,0.8-0.2,1,0.2c3.2,4.6,4.9,9.9,4.9,15.5c0,9.8-5.3,18.8-13.9,23.6
					C381.5,151.8,381.4,151.9,381.2,151.9z"/>
			</g>
			<g>
				<path class="st3" d="M379.9,148c-0.2,0-0.5-0.1-0.6-0.4c-0.2-0.4-0.1-0.8,0.3-1c6.5-3.8,10.5-10.9,10.5-18.4
					c0-4.3-1.3-8.5-3.7-12c-0.2-0.3-0.1-0.8,0.2-1c0.3-0.2,0.8-0.1,1,0.2c2.6,3.8,3.9,8.2,3.9,12.8c0,8-4.3,15.6-11.2,19.7
					C380.2,148,380.1,148,379.9,148z"/>
			</g>
			<g>
				<path class="st3" d="M378.5,144c-0.2,0-0.5-0.1-0.6-0.3c-0.2-0.3-0.1-0.8,0.2-1c4.9-3.2,7.8-8.6,7.8-14.4c0-3.3-0.9-6.5-2.7-9.2
					c-0.2-0.3-0.1-0.8,0.2-1c0.3-0.2,0.8-0.1,1,0.2c1.9,3,2.9,6.4,2.9,10c0,6.3-3.1,12.1-8.4,15.6C378.8,143.9,378.7,144,378.5,144z
					"/>
			</g>
			<g>
				<path class="st3" d="M377.1,139.6c-0.2,0-0.4-0.1-0.6-0.3c-0.2-0.3-0.2-0.8,0.1-1c3.1-2.4,4.9-6.1,4.9-10.1
					c0-2.2-0.6-4.4-1.6-6.3c-0.2-0.4-0.1-0.8,0.3-1c0.4-0.2,0.8-0.1,1,0.3c1.2,2.1,1.8,4.5,1.8,7c0,4.4-2,8.5-5.5,11.2
					C377.4,139.6,377.2,139.6,377.1,139.6z"/>
			</g>
		</g>
	</g>
	<g>
		<path class="st3" d="M0.4,50.9h65.8v3.9c-10.5,0.3-17.1,1.7-19.8,4.1s-4.1,7.8-4.1,16.1v32.4h58.5V75c0-8.2-1.4-13.6-4.2-16
			s-9.4-3.9-20-4.2l-0.1-3.9h65.9v3.9c-10.5,0.3-17.1,1.7-19.9,4.1c-2.8,2.5-4.2,7.8-4.2,16.1v74.7c0,8.3,1.4,13.6,4.1,16.1
			c2.8,2.4,9.4,3.8,20,4.1v3.9H76.5l0.1-3.9c10.6-0.3,17.2-1.7,20-4.1c2.8-2.4,4.1-7.8,4.1-16.1v-38.5H42.2v38.5
			c0,8.3,1.3,13.7,4,16.1c2.7,2.4,9.3,3.8,19.8,4.1l0.1,3.9H0.4V170c10.5-0.3,17.1-1.7,19.9-4.1s4.1-7.8,4.1-16.1V75
			c0-8.3-1.4-13.7-4.1-16.1c-2.7-2.5-9.3-3.8-19.9-4.1C0.4,54.8,0.4,50.9,0.4,50.9z"/>
		<path class="st3" d="M207.4,124.8v34.9c0,5.5,0.3,9.1,0.9,10.6c0.6,1.6,1.7,2.4,3.3,2.4c2.4,0,4.5-1.9,6.1-5.7
			c1.7-3.8,2.5-8.7,2.5-14.6v-1.6h3.3c0,0.9,0,2-0.1,3.2c-0.1,1.2-0.1,1.9-0.1,2.2c0,6.6-1.4,11.8-4.2,15.6s-6.7,5.7-11.6,5.7
			c-4.2,0-7.5-1.5-9.9-4.5c-2.4-3-3.8-7.2-3.9-12.7c-2.4,5.7-5.7,10.1-10,12.9s-9.7,4.3-16,4.3c-7.1,0-12.8-1.9-17.1-5.5
			c-4.3-3.7-6.5-8.5-6.5-14.5c0-8.4,4-15.2,11.9-20.3s20.3-8.9,37.2-11.3V116c0-7.1-1.3-12.1-3.9-15.2c-2.6-3-6.8-4.5-12.7-4.5
			c-4.6,0-8.8,0.8-12.5,2.5c-3.7,1.7-5.5,3.3-5.5,4.9c0,0.2,0.6,0.7,1.9,1.4c5,2.7,7.5,5.9,7.5,9.5c0,2.4-0.9,4.4-2.8,6.1
			c-1.9,1.7-4.1,2.6-6.6,2.6c-2.9,0-5.3-1-7.2-3c-1.9-2-2.9-4.6-2.9-7.8c0-5.6,2.8-10.4,8.5-14.2c5.7-3.9,12.8-5.8,21.4-5.8
			c5,0,9.5,0.8,13.6,2.3s7.4,3.7,9.8,6.4c2,2.4,3.4,5.1,4.3,8.2C207,112.6,207.4,117.8,207.4,124.8z M193.2,129.3
			c-10.8,1.5-18.9,4.6-24.2,9.2c-5.3,4.6-8,10.9-8,18.7c0,4.8,1.1,8.6,3.4,11.4c2.2,2.8,5.3,4.2,9.1,4.2c5.9,0,10.6-2.9,14.3-8.7
			c3.7-5.8,5.5-13.4,5.5-22.9L193.2,129.3L193.2,129.3z"/>
		<path class="st3" d="M299.5,123.9v37.6c0,3.6,0.5,6,1.6,7c1.1,1,3.4,1.5,7.1,1.5h6v3.9h-42.7V170h5.2c3.7,0,6-0.5,7.1-1.6
			c1-1.1,1.5-3.4,1.5-6.9v-47c0-5.3-1-9.3-2.9-12s-4.8-4-8.4-4c-7.1,0-12.9,4-17.4,12.1s-6.8,18.8-6.8,32.1v18.8c0,3.6,0.5,6,1.6,7
			s3.4,1.5,7,1.5h5.4v3.9h-42.5V170h5.4c3.8,0,6.3-0.5,7.4-1.5c1.1-1,1.6-3.3,1.6-7v-49.2c0-5.4-0.8-8.8-2.4-10.2
			c-1.6-1.4-5.3-2-11-2h-2v-3.9l29.7-0.9v23c2.3-7.7,5.8-13.7,10.5-17.8c4.7-4.1,10.2-6.2,16.6-6.2c7.6,0,13.3,2.5,17,7.4
			C297.7,106.5,299.5,113.9,299.5,123.9z"/>
	</g>
</g>
</svg>
