<?xml version="1.0" encoding="utf-8"?>
<!-- Generator: Adobe Illustrator 24.1.0, SVG Export Plug-In . SVG Version: 6.00 Build 0)  -->
<svg version="1.1" id="Layer_1" xmlns="http://www.w3.org/2000/svg" xmlns:xlink="http://www.w3.org/1999/xlink" x="0px" y="0px"
	 viewBox="0 0 119.42 77.33" style="enable-background:new 0 0 119.42 77.33;" xml:space="preserve">
<style type="text/css">
	.st0{fill:none;stroke:#EC6899;stroke-width:2;stroke-linecap:round;stroke-linejoin:round;stroke-miterlimit:10;}
	.st1{fill:#EC6899;}
	.st2{fill:#B75278;}
</style>
<g>
	<g>
		<path class="st0" d="M21.3,73.04L21.3,73.04c-7.96,0-14.42-6.45-14.42-14.42v-5.44c0-7.96,6.45-14.42,14.42-14.42l0,0V73.04z"/>
		<path class="st0" d="M27.38,75.02h-3.29c-1.54,0-2.79-1.25-2.79-2.79V39.58c0-1.54,1.25-2.79,2.79-2.79h3.29
			c1.54,0,2.79,1.25,2.79,2.79v32.65C30.17,73.77,28.93,75.02,27.38,75.02z"/>
		<path class="st0" d="M95.97,73.04L95.97,73.04c7.96,0,14.42-6.45,14.42-14.42v-5.44c0-7.96-6.45-14.42-14.42-14.42l0,0V73.04z"/>
		<path class="st0" d="M91.53,75.02L91.53,75.02c2.45,0,4.44-1.99,4.44-4.44V41.22c0-2.45-1.99-4.44-4.44-4.44l0,0
			c-2.45,0-4.44,1.99-4.44,4.44v29.36C87.1,73.04,89.08,75.02,91.53,75.02z"/>
		<path class="st0" d="M95.97,39.66v1.57c0-2.14-1.52-3.93-3.53-4.35c0.21-0.06,0.43-0.09,0.67-0.09
			C94.68,36.79,95.97,38.08,95.97,39.66z"/>
		<path class="st0" d="M95.97,70.59v1.57c0,1.58-1.29,2.87-2.87,2.87c-0.24,0-0.46-0.03-0.67-0.09
			C94.44,74.52,95.97,72.72,95.97,70.59z"/>
		<g>
			<path class="st1" d="M95.97,42.71c-0.82,0-1.48-0.66-1.48-1.48c0-7.44-2.4-14.46-6.93-20.31c-0.5-0.65-0.38-1.57,0.26-2.07
				c0.64-0.5,1.57-0.38,2.07,0.26c4.94,6.38,7.56,14.02,7.56,22.12C97.45,42.04,96.78,42.71,95.97,42.71z"/>
		</g>
		<g>
			<path class="st1" d="M21.3,42.71c-0.82,0-1.48-0.66-1.48-1.48c0-7.77,2.43-15.17,7.02-21.4c0.49-0.66,1.41-0.8,2.07-0.31
				c0.66,0.48,0.8,1.41,0.31,2.07c-4.21,5.71-6.44,12.51-6.44,19.64C22.78,42.04,22.12,42.71,21.3,42.71z"/>
		</g>
		<g>
			<path class="st0" d="M30.87,21.73c-1.1,0-2.2-0.41-3.06-1.22c-1.77-1.69-1.84-4.5-0.15-6.27C35.12,6.4,45.19,2.08,56.01,2.08
				h5.25c10.46,0,20.29,4.07,27.68,11.47c1.73,1.73,1.73,4.54,0,6.27c-1.73,1.73-4.54,1.73-6.27,0c-5.72-5.72-13.32-8.87-21.41-8.87
				h-5.25c-8.37,0-16.16,3.34-21.93,9.4C33.21,21.27,32.04,21.73,30.87,21.73z"/>
		</g>
	</g>
	<path class="st2" d="M75.98,42.21c-0.4,0.4-0.4,1.04,0,1.43c3.14,3.14,5.08,7.47,5.08,12.26c0,4.79-1.94,9.12-5.08,12.26
		c-0.4,0.4-0.4,1.04,0,1.43c0.4,0.4,1.04,0.4,1.43,0c3.5-3.5,5.67-8.35,5.67-13.69c0-5.34-2.17-10.19-5.67-13.69
		C77.01,41.82,76.37,41.82,75.98,42.21z"/>
	<path class="st2" d="M73.32,46.3c-0.4-0.4-1.04-0.4-1.43,0c-0.4,0.4-0.4,1.04,0,1.43c1.7,1.7,2.87,3.93,3.25,6.41
		c0.09,0.57,0.13,1.16,0.13,1.76c0,3.2-1.29,6.08-3.39,8.18c-0.4,0.39-0.4,1.04,0,1.43c0.4,0.4,1.04,0.4,1.43,0
		c2.46-2.46,3.98-5.86,3.98-9.61C77.31,52.16,75.78,48.75,73.32,46.3z"/>
	<path class="st2" d="M69.43,50.19c-0.4-0.4-1.04-0.4-1.43,0c-0.4,0.4-0.4,1.04,0,1.43c1.1,1.1,1.77,2.61,1.78,4.28
		c0,1.68-0.68,3.18-1.78,4.28c-0.4,0.4-0.4,1.04,0,1.43c0.4,0.4,1.04,0.4,1.43,0c1.46-1.46,2.37-3.49,2.37-5.72
		C71.8,53.68,70.89,51.65,69.43,50.19z"/>
	<g>
		<path class="st2" d="M41.35,69.6c0.4-0.4,0.4-1.04,0-1.43c-3.14-3.14-5.08-7.47-5.08-12.26c0-4.79,1.94-9.12,5.08-12.26
			c0.4-0.4,0.4-1.04,0-1.43c-0.4-0.4-1.04-0.4-1.43,0c-3.5,3.5-5.67,8.35-5.67,13.69c0,5.34,2.17,10.19,5.67,13.69
			C40.31,69.99,40.95,69.99,41.35,69.6z"/>
		<path class="st2" d="M44,65.52c0.4,0.4,1.04,0.4,1.43,0c0.4-0.4,0.4-1.04,0-1.43c-1.7-1.7-2.87-3.93-3.25-6.41
			c-0.09-0.57-0.13-1.16-0.13-1.76c0-3.2,1.29-6.08,3.39-8.18c0.4-0.39,0.4-1.04,0-1.43c-0.4-0.4-1.04-0.4-1.43,0
			c-2.46,2.46-3.98,5.86-3.98,9.61C40.02,59.65,41.54,63.06,44,65.52z"/>
		<path class="st2" d="M47.89,61.62c0.4,0.4,1.04,0.4,1.43,0c0.4-0.4,0.4-1.04,0-1.43c-1.1-1.1-1.77-2.61-1.78-4.28
			c0-1.68,0.68-3.18,1.78-4.28c0.4-0.4,0.4-1.04,0-1.43c-0.4-0.4-1.04-0.4-1.43,0c-1.46,1.46-2.37,3.49-2.37,5.72
			C45.52,58.13,46.43,60.16,47.89,61.62z"/>
	</g>
</g>
</svg>
